<?xml version="1.0" standalone="no"?>
<!DOCTYPE svg PUBLIC "-//W3C//DTD SVG 20010904//EN"
 "http://www.w3.org/TR/2001/REC-SVG-20010904/DTD/svg10.dtd">
<svg version="1.0" xmlns="http://www.w3.org/2000/svg"
 width="794.000000pt" height="1123.000000pt" viewBox="0 0 794.000000 1123.000000"
 preserveAspectRatio="xMidYMid meet">

<g transform="translate(0.000000,1123.000000) scale(0.100000,-0.100000)"
fill="#000000" stroke="none">
<path d="M4738 9598 c-76 -82 -166 -313 -208 -537 -17 -88 -20 -124 -13 -155
l10 -41 12 29 c6 16 23 81 36 145 49 232 113 410 181 502 31 43 38 47 59 39
49 -19 78 -45 159 -144 176 -214 211 -297 211 -491 -1 -100 -5 -129 -24 -177
-60 -154 -243 -256 -408 -229 -32 5 -74 13 -93 17 l-35 7 47 -50 c26 -28 67
-92 93 -143 25 -50 88 -167 140 -260 173 -310 211 -402 236 -569 14 -103 6
-357 -15 -452 -19 -85 -71 -196 -147 -309 -227 -339 -538 -480 -1059 -480
-183 0 -276 18 -406 79 -113 53 -185 103 -278 191 -146 139 -210 256 -239 440
-9 54 -21 236 -27 426 -17 483 1 651 90 841 22 47 40 89 40 94 0 4 -35 -12
-77 -36 -99 -57 -153 -70 -288 -70 -101 0 -115 2 -170 29 -74 36 -182 142
-218 211 -14 28 -32 75 -41 105 -18 65 -36 231 -36 340 0 100 12 115 85 106
159 -18 389 -136 719 -365 55 -38 61 -40 75 -26 15 15 13 19 -14 41 -16 14
-97 70 -180 126 -288 193 -578 308 -675 268 -56 -23 -64 -55 -57 -222 12 -270
56 -398 176 -519 79 -79 135 -113 221 -135 80 -20 216 -14 308 15 34 10 62 15
62 10 0 -5 -6 -25 -14 -43 -54 -129 -71 -353 -57 -756 20 -567 49 -671 243
-875 133 -140 278 -232 458 -290 67 -22 110 -29 207 -33 l121 -4 6 -57 c3 -31
13 -128 21 -216 40 -395 60 -630 55 -633 -4 -1 -55 15 -116 36 -60 22 -140 49
-177 62 -52 17 -71 28 -77 46 -13 32 -30 30 -31 -3 -1 -23 -34 -59 -185 -196
-101 -93 -182 -173 -178 -178 3 -6 12 -8 19 -5 7 2 27 -11 45 -29 18 -18 60
-45 94 -59 33 -15 72 -32 86 -39 16 -9 62 -13 128 -12 l102 1 0 -26 c0 -41
-47 -80 -96 -80 -34 0 -46 -6 -81 -42 -116 -121 -206 -265 -254 -408 -26 -78
-32 -114 -37 -231 l-7 -138 -41 18 c-37 17 -44 26 -68 87 -82 217 -130 464
-160 833 -13 163 -18 180 -54 181 -9 0 -11 -10 -8 -32 3 -18 8 -80 11 -138 17
-289 69 -578 145 -802 l50 -149 -12 -110 c-25 -227 29 -312 219 -341 68 -11
81 -16 107 -46 44 -50 143 -117 241 -163 247 -116 560 -131 759 -36 75 36 212
140 240 182 15 22 23 25 79 25 161 0 262 35 306 106 40 62 46 112 31 259 l-13
123 28 76 c25 69 30 76 55 76 26 0 29 -5 44 -67 52 -207 167 -330 351 -378 69
-18 262 -20 351 -4 237 42 446 181 527 350 49 103 61 173 54 332 -6 153 -23
229 -79 346 -99 208 -321 334 -558 317 -47 -3 -97 -9 -111 -12 -22 -5 -30 1
-62 50 -21 31 -39 56 -42 56 -2 0 -9 -9 -15 -21 -9 -16 -6 -28 14 -64 l26 -44
-72 -38 c-139 -73 -263 -216 -335 -386 -30 -71 -34 -76 -29 -40 17 122 36 315
36 366 0 43 -3 57 -15 57 -23 0 -32 -28 -39 -125 -22 -286 -82 -581 -157 -779
-19 -48 -26 -57 -67 -74 -26 -11 -48 -19 -49 -18 -2 1 2 29 7 62 22 133 4 360
-38 486 -16 50 -19 53 -77 76 -58 23 -73 37 -136 133 -3 5 -25 1 -49 -8 l-43
-17 -52 58 c-29 33 -57 56 -62 53 -7 -5 -13 39 -18 127 -7 126 -9 136 -32 158
l-25 23 7 -172 c5 -120 4 -173 -3 -173 -6 0 -28 21 -49 46 -37 44 -39 46 -85
41 l-47 -4 -5 46 c-3 25 -15 143 -25 261 -28 299 -37 402 -71 745 -16 165 -30
301 -30 303 0 1 16 2 35 2 41 0 258 44 330 67 135 43 312 158 416 271 61 66
164 212 202 288 76 151 102 299 94 529 -9 251 -43 349 -245 711 -154 277 -197
367 -174 359 34 -10 154 14 219 45 156 72 243 220 243 413 0 134 -40 270 -111
374 -68 101 -212 264 -252 287 -77 43 -94 43 -139 -6z m-569 -4125 c40 -428
75 -785 77 -794 7 -24 -49 -79 -79 -79 -14 0 -28 4 -31 8 -8 14 -158 1613
-152 1628 4 10 22 14 58 14 l54 0 73 -777z m-304 -112 c83 -28 155 -55 162
-59 7 -4 15 -33 19 -64 6 -54 5 -56 -31 -97 -21 -23 -50 -51 -66 -61 l-27 -20
-60 93 c-155 240 -173 269 -160 264 7 -3 81 -28 163 -56z m-86 -139 c61 -95
111 -175 111 -178 0 -14 -113 -55 -175 -63 -59 -9 -155 -5 -155 5 0 2 20 96
45 210 25 113 45 208 45 212 0 12 17 -14 129 -186z m-209 -34 c-24 -106 -44
-195 -46 -197 -15 -17 -214 93 -214 118 0 12 291 283 297 277 3 -2 -14 -91
-37 -198z m493 -120 l6 -67 -52 -32 -51 -32 -83 13 c-52 7 -83 17 -83 24 0 12
93 56 118 56 6 0 12 6 12 13 0 6 21 27 46 46 25 19 50 43 56 54 15 29 24 7 31
-75z m10 -130 c3 -13 11 -92 18 -176 12 -145 14 -155 38 -173 32 -26 65 -18
109 24 l34 32 -7 95 c-3 52 -8 103 -11 112 -4 13 4 20 28 26 31 9 36 6 89 -45
l56 -55 42 21 41 21 37 -41 c21 -23 43 -48 48 -56 9 -13 17 -12 54 3 37 15 45
15 51 3 33 -57 72 -94 121 -114 61 -26 77 -48 86 -126 6 -47 4 -51 -13 -46
-69 20 -79 18 -127 -18 l-47 -36 -51 35 c-56 38 -57 38 -161 -15 l-38 -19 -82
41 -82 41 -63 -31 c-35 -17 -68 -31 -74 -31 -5 0 -42 22 -82 48 l-72 48 -60
-12 c-33 -7 -67 -13 -75 -13 -8 0 -36 29 -62 64 l-48 64 -72 3 -71 3 -29 84
-28 85 22 23 c17 18 32 23 69 23 41 0 51 4 79 36 17 20 34 34 36 31 3 -3 23
-72 45 -153 39 -148 51 -176 68 -158 6 5 -8 73 -35 173 -24 91 -42 166 -40
168 1 2 37 -2 78 -9 74 -11 77 -11 119 15 54 32 56 32 62 5z m1164 -420 c-3
-8 -6 -5 -6 6 -1 11 2 17 5 13 3 -3 4 -12 1 -19z m-34 -206 c-4 -54 -10 -72
-21 -72 -10 0 -13 7 -8 23 3 12 11 46 17 75 7 28 14 51 15 49 2 -2 0 -35 -3
-75z"/>
<path d="M4896 9183 c-59 -74 -76 -132 -75 -247 1 -50 4 -77 6 -61 15 115 38
197 79 274 24 46 43 86 40 88 -2 2 -24 -22 -50 -54z"/>
<path d="M2480 8827 c0 -2 35 -25 78 -49 71 -42 145 -109 216 -198 l27 -35
-17 35 c-31 63 -93 149 -128 175 -39 29 -176 86 -176 72z"/>
<path d="M4345 8186 c-65 -30 -112 -78 -143 -144 -20 -45 -23 -65 -20 -125 5
-84 26 -135 81 -190 143 -143 395 -87 462 103 28 79 16 196 -26 251 -18 24
-18 24 -12 1 14 -56 -44 -122 -109 -122 -54 0 -108 51 -108 102 0 49 32 94 77
109 l38 12 -30 13 c-51 22 -153 17 -210 -10z m191 -251 c21 -33 6 -72 -31 -81
-50 -13 -86 53 -49 90 24 24 61 20 80 -9z"/>
<path d="M3481 8009 c-196 -57 -264 -310 -124 -460 63 -68 120 -93 208 -93 89
1 149 28 210 96 55 61 80 136 72 215 -6 55 -45 140 -80 170 -19 18 -20 17 -8
-4 16 -31 14 -85 -5 -111 -17 -25 -64 -52 -89 -52 -36 0 -84 32 -100 67 -32
67 7 135 88 153 l32 7 -40 11 c-47 14 -117 14 -164 1z m151 -266 c10 -9 18
-25 18 -36 0 -26 -28 -57 -52 -57 -22 0 -58 34 -58 55 0 20 36 55 57 55 9 0
25 -7 35 -17z"/>
<path d="M4352 7371 c-31 -15 -43 -26 -40 -38 4 -20 22 -21 83 -2 59 18 99 -3
103 -52 3 -32 -2 -41 -34 -67 -38 -32 -42 -62 -7 -62 45 1 93 67 93 127 0 92
-100 139 -198 94z"/>
<path d="M3708 7244 c-63 -19 -98 -62 -98 -118 0 -28 7 -52 20 -69 24 -31 100
-62 129 -52 23 7 29 44 9 46 -7 1 -17 2 -23 4 -5 1 -18 3 -27 3 -29 3 -58 39
-58 72 0 23 7 35 33 50 17 11 46 20 63 20 40 0 62 23 44 45 -15 18 -31 18 -92
-1z"/>
<path d="M2374 5174 c-58 -63 -116 -116 -127 -118 -12 -2 -51 -9 -87 -15 -96
-16 -216 -78 -289 -152 -130 -130 -192 -307 -192 -549 1 -184 38 -290 144
-406 209 -228 643 -313 911 -177 110 56 201 193 234 353 l17 81 37 6 c32 5 38
9 38 30 0 23 -3 25 -35 21 l-34 -4 -6 56 c-17 159 -72 326 -147 442 -99 153
-270 272 -432 299 l-74 13 80 85 c44 47 89 98 99 112 l19 27 -25 4 c-21 4 -41
-12 -131 -108z"/>
</g>
</svg>
